# xmcd
#
# Track frame offsets: 
#        150
#        16162
#        36075
#        54462
#        73450
#        96387
#        115275
#        134462
#        148525
#        166012
#        176050
#        187800
#        200562
#        223225
#        239575
#        255137
#        266662
#        288400
#        305050
#        319762
#
# Disc length: 4426 seconds
#
# Revision: 1
# Processed by: cddbd v1.5.1PL2 Copyright (c) Steve Scherf et al.
# Submitted via: ExactAudioCopy v0.95a4
#
DISCID=32114814
DTITLE=Various Artist - Superstar Christmas
DYEAR=1997
DGENRE=Christmas
TTITLE0=John Lennon and Yoko Ono - Happy Xmas
TTITLE1=Mariah Carey - O Holy Night
TTITLE2=Michael Bolton - Santa Claus is Coming to Town
TTITLE3=Celine Dion - Chestnuts Roasting on an Open Fire
TTITLE4=Luther Vandross - Have Yourself a Merry Little Christmas
TTITLE5=3T - Endless Christmas
TTITLE6=Backstreet Boys - Christmas Time
TTITLE7=Human Nature - Last Christmas
TTITLE8=Band Aid - Do They Know It's Christmas?
TTITLE9=Tony Bennett - Winter Wonderland
TTITLE10=Frank Sinatra - Let it Snow, Let it Snow, Let it Snow
TTITLE11=Placido Domingo - White Christmas
TTITLE12=Gloria Estefan - Christmas Through Your Eyes
TTITLE13=Neil Diamond - You Make it Feel Like Christmas
TTITLE14=Amy Grant - I'll Be Home for Christmas
TTITLE15=Boyz II Men - Silent Night
TTITLE16=Bruce Springsteen and the E Street Band - Merry Christmas Baby
TTITLE17=Cyndi Lauper - Early Christmas Morning
TTITLE18=Jackson 5 - Little Drummer Boy
TTITLE19=Barbara Streisand - The Lord's Prayer
EXTD=
EXTT0=
EXTT1=
EXTT2=
EXTT3=
EXTT4=
EXTT5=
EXTT6=
EXTT7=
EXTT8=
EXTT9=
EXTT10=
EXTT11=
EXTT12=
EXTT13=
EXTT14=
EXTT15=
EXTT16=
EXTT17=
EXTT18=
EXTT19=
PLAYORDER=
